<?xml version="1.0" encoding="UTF-8"?>
<svg xmlns="http://www.w3.org/2000/svg" xmlns:xlink="http://www.w3.org/1999/xlink" width="40px" height="40px" viewBox="0 0 40 40" version="1.1">
<g id="surface1">
<path style=" stroke:none;fill-rule:nonzero;fill:rgb(0%,0%,0%);fill-opacity:1;" d="M 38.75 22.5 C 38.113281 22.5 37.5 23.046875 37.5 23.75 L 37.5 37.5 L 2.5 37.5 L 2.5 2.5 L 16.25 2.5 C 16.914062 2.5 17.5 1.914062 17.5 1.25 C 17.5 0.585938 16.875 0 16.25 0 L 2.5 0 C 1.117188 0 0 1.117188 0 2.5 L 0 37.5 C 0 38.882812 1.117188 40 2.5 40 L 37.5 40 C 38.882812 40 40 38.882812 40 37.5 L 40 23.730469 C 40 23.039062 39.492188 22.5 38.75 22.5 Z M 38.75 22.5 "/>
<path style=" stroke:none;fill-rule:nonzero;fill:rgb(0%,0%,0%);fill-opacity:1;" d="M 38.75 0 L 26.25 0 C 25.558594 0 25 0.558594 25 1.25 C 25 1.941406 25.558594 2.5 26.25 2.5 L 35.746094 2.5 L 10.351562 27.890625 C 9.867188 28.375 9.867188 29.164062 10.351562 29.648438 C 10.835938 30.132812 11.625 30.132812 12.109375 29.648438 L 37.5 4.253906 L 37.5 13.75 C 37.5 14.441406 38.058594 15 38.75 15 C 39.441406 15 40 14.441406 40 13.75 L 40 1.25 C 40 0.578125 39.421875 0 38.75 0 Z M 38.75 0 "/>
</g>
</svg>
