<?xml version="1.0" encoding="UTF-8"?>
<svg xmlns="http://www.w3.org/2000/svg" xmlns:xlink="http://www.w3.org/1999/xlink" width="40px" height="40px" viewBox="0 0 40 40" version="1.1">
<g id="surface1">
<path style=" stroke:none;fill-rule:nonzero;fill:rgb(0%,0%,0%);fill-opacity:1;" d="M 11.871094 0 C 9.191406 0 7.011719 2.179688 7.011719 4.859375 L 7.011719 35.140625 C 7.011719 37.820312 9.191406 40 11.871094 40 C 14.550781 40 16.734375 37.820312 16.734375 35.140625 L 16.734375 4.859375 C 16.734375 2.179688 14.550781 0 11.871094 0 Z M 15.140625 35.140625 C 15.140625 36.941406 13.675781 38.40625 11.871094 38.40625 C 10.070312 38.40625 8.605469 36.941406 8.605469 35.140625 L 8.605469 4.859375 C 8.605469 3.058594 10.070312 1.59375 11.871094 1.59375 C 13.675781 1.59375 15.140625 3.058594 15.140625 4.859375 Z M 15.140625 35.140625 "/>
<path style=" stroke:none;fill-rule:nonzero;fill:rgb(0%,0%,0%);fill-opacity:1;" d="M 28.128906 0 C 25.449219 0 23.265625 2.179688 23.265625 4.859375 L 23.265625 35.140625 C 23.265625 37.820312 25.449219 40 28.128906 40 C 30.808594 40 32.988281 37.820312 32.988281 35.140625 L 32.988281 4.859375 C 32.988281 2.179688 30.808594 0 28.128906 0 Z M 31.394531 35.140625 C 31.394531 36.941406 29.929688 38.40625 28.128906 38.40625 C 26.328125 38.40625 24.859375 36.941406 24.859375 35.140625 L 24.859375 4.859375 C 24.859375 3.058594 26.324219 1.59375 28.128906 1.59375 C 29.929688 1.59375 31.394531 3.058594 31.394531 4.859375 Z M 31.394531 35.140625 "/>
<path style=" stroke:none;fill-rule:nonzero;fill:rgb(0%,0%,0%);fill-opacity:1;" d="M 10.359375 4.0625 C 9.917969 4.0625 9.5625 4.421875 9.5625 4.859375 L 9.5625 6.421875 C 9.5625 6.863281 9.917969 7.21875 10.359375 7.21875 C 10.796875 7.21875 11.15625 6.863281 11.15625 6.421875 L 11.15625 4.859375 C 11.15625 4.421875 10.796875 4.0625 10.359375 4.0625 Z M 10.359375 4.0625 "/>
<path style=" stroke:none;fill-rule:nonzero;fill:rgb(0%,0%,0%);fill-opacity:1;" d="M 10.359375 8.585938 C 9.917969 8.585938 9.5625 8.945312 9.5625 9.382812 L 9.5625 28.152344 C 9.5625 28.59375 9.917969 28.949219 10.359375 28.949219 C 10.796875 28.949219 11.15625 28.59375 11.15625 28.152344 L 11.15625 9.382812 C 11.15625 8.945312 10.796875 8.585938 10.359375 8.585938 Z M 10.359375 8.585938 "/>
</g>
</svg>
