<?xml version="1.0" encoding="UTF-8"?>
<svg xmlns="http://www.w3.org/2000/svg" xmlns:xlink="http://www.w3.org/1999/xlink" width="40px" height="40px" viewBox="0 0 40 40" version="1.1">
<g id="surface1">
<path style=" stroke:none;fill-rule:nonzero;fill:rgb(0%,0%,0%);fill-opacity:1;" d="M 34.074219 13.929688 C 33.488281 13.566406 32.714844 13.746094 32.347656 14.332031 C 31.980469 14.921875 32.160156 15.695312 32.746094 16.0625 C 34.117188 16.914062 34.933594 18.386719 34.933594 20 C 34.933594 21.613281 34.117188 23.085938 32.746094 23.9375 L 12.164062 36.773438 C 10.710938 37.679688 8.953125 37.722656 7.457031 36.894531 C 5.960938 36.0625 5.066406 34.546875 5.066406 32.835938 L 5.066406 7.164062 C 5.066406 5.453125 5.960938 3.9375 7.457031 3.105469 C 8.953125 2.277344 10.710938 2.320312 12.164062 3.226562 L 24.148438 10.699219 C 24.734375 11.066406 25.507812 10.886719 25.875 10.296875 C 26.242188 9.710938 26.0625 8.933594 25.476562 8.570312 L 13.492188 1.097656 C 11.253906 -0.296875 8.542969 -0.367188 6.238281 0.914062 C 3.933594 2.191406 2.558594 4.53125 2.558594 7.164062 L 2.558594 32.835938 C 2.558594 35.46875 3.933594 37.808594 6.238281 39.085938 C 7.335938 39.695312 8.527344 40 9.714844 40 C 11.019531 40 12.320312 39.632812 13.492188 38.902344 L 34.074219 26.066406 C 36.183594 24.753906 37.441406 22.484375 37.441406 20 C 37.441406 17.515625 36.183594 15.246094 34.074219 13.929688 Z M 34.074219 13.929688 "/>
</g>
</svg>
